<svg width="512" height="512" viewBox="0 0 512 512" fill="none" xmlns="http://www.w3.org/2000/svg">
<g id="swords 1">
<g id="Group 1">
<path id="Vector" d="M442.906 475.162L327.715 378.492L378.492 327.715L475.162 442.906L442.906 475.162Z" fill="#59474E"/>
<path id="Vector_2" d="M336.419 336.419L310.996 361.843L256 318.499L242.141 307.641V307.553L187.057 264.21L12.712 126.941L0 0" fill="#90BAE1"/>
<g id="Group">
<path id="Vector_3" d="M361.843 310.996L336.419 336.419L0 0L126.941 12.712L256 176.64L290.957 221.043L307.553 242.141H307.641L324.943 264.21L361.843 310.996Z" fill="#B0D3F0"/>
<path id="Vector_4" d="M336.419 336.419L361.843 310.996L324.943 264.21L307.641 242.141H307.553L290.957 221.043L256 176.64L126.941 12.712L0 0" fill="#B0D3F0"/>
</g>
<g id="Group_2">
<path id="Vector_5" d="M247.57 256.397C245.229 256.396 242.984 255.466 241.329 253.811L82.626 95.108C79.281 91.644 79.328 86.138 82.734 82.733C86.139 79.328 91.645 79.28 95.109 82.625L253.811 241.327C256.335 243.852 257.09 247.648 255.724 250.946C254.357 254.246 251.139 256.396 247.57 256.397Z" fill="#3F5C6C"/>
<path id="Vector_6" d="M63.479 72.307C61.141 72.311 58.896 71.387 57.238 69.738L38.197 50.679C34.852 47.215 34.899 41.709 38.305 38.304C41.711 34.899 47.216 34.851 50.68 38.196L69.739 57.237C72.263 59.762 73.018 63.558 71.652 66.856C70.286 70.154 67.068 72.305 63.498 72.306H63.479V72.307Z" fill="#3F5C6C"/>
</g>
<g id="Group_3">
<path id="Vector_7" d="M417.898 298.372C417.896 303.146 415.99 307.721 412.601 311.084L311.084 412.601C304.063 419.621 292.681 419.621 285.661 412.601C278.64 405.58 278.64 394.198 285.661 387.178L387.178 285.661C392.328 280.529 400.058 278.997 406.775 281.777C413.493 284.556 417.88 291.102 417.898 298.372Z" fill="#F0C419"/>
<path id="Vector_8" d="M476.089 512C495.922 512 512 495.922 512 476.089C512 456.256 495.922 440.178 476.089 440.178C456.256 440.178 440.178 456.256 440.178 476.089C440.178 495.922 456.256 512 476.089 512Z" fill="#F0C419"/>
</g>
<path id="Vector_9" d="M476.089 493.744C485.84 493.744 493.744 485.84 493.744 476.089C493.744 466.338 485.84 458.434 476.089 458.434C466.338 458.434 458.434 466.338 458.434 476.089C458.434 485.84 466.338 493.744 476.089 493.744Z" fill="#E57E25"/>
</g>
</g>
</svg>
