<svg id="color" enable-background="new 0 0 24 24" height="512" viewBox="0 0 24 24" width="512" xmlns="http://www.w3.org/2000/svg"><path d="m24 1.75v2.25h-24v-2.25c0-.96.79-1.75 1.75-1.75h20.5c.96 0 1.75.79 1.75 1.75z" fill="#1976d2"/><path d="m24 4v5.87c0 6.99-4.99 12.92-11.87 14.12l-.13.01-.13-.01c-6.88-1.2-11.87-7.13-11.87-14.12v-5.87z" fill="#2196f3"/><path d="m18.471 12.283-4.398-1.356-1.355-4.398c-.098-.315-.389-.529-.718-.529s-.62.214-.717.529l-1.355 4.398-4.398 1.356c-.315.097-.53.388-.53.717s.215.62.529.717l4.398 1.356 1.355 4.398c.098.315.389.529.718.529s.62-.214.717-.529l1.355-4.398 4.398-1.356c.315-.097.53-.388.53-.717s-.215-.62-.529-.717z" fill="#fafafa"/><path d="m12 0h-10.25c-.96 0-1.75.79-1.75 1.75v2.25h12z" fill="#1667b7"/><path d="m12 4h-12v5.87c0 6.99 4.99 12.92 11.87 14.12l.13.01v-4c-.329 0-.62-.214-.717-.529l-1.355-4.398-4.398-1.356c-.315-.097-.53-.388-.53-.717s.215-.62.529-.717l4.398-1.356 1.355-4.398c.098-.315.389-.529.718-.529z" fill="#1d83d4"/><path d="m12 6c-.329 0-.62.214-.717.529l-1.355 4.398-4.398 1.356c-.315.097-.53.388-.53.717s.215.62.529.717l4.398 1.356 1.355 4.398c.098.315.389.529.718.529z" fill="#dadada"/></svg>