<svg height="512pt" viewBox="-85 0 512 512.00053" width="512pt" xmlns="http://www.w3.org/2000/svg"><path d="m341.933594 480.804688c0 8.609374-3.484375 16.421874-9.128906 22.054687-5.648438 5.65625-13.457032 9.140625-22.066407 9.140625h-279.542969c-17.136718 0-31.164062-13.820312-31.195312-30.945312-.0742188-39.460938 15.898438-75.1875 41.75-101.039063 19.765625-19.777344 45.324219-33.761719 73.898438-39.210937 11.449218-2.183594 19.757812-12.15625 19.757812-23.8125v-43.378907h71.121094v43.390625c0 11.605469 8.234375 21.609375 19.652344 23.78125 65.914062 12.53125 115.753906 70.457032 115.753906 140.019532zm0 0" fill="#4b5055"/><path d="m341.933594 480.804688c0 8.609374-3.484375 16.421874-9.128906 22.054687-5.648438 5.65625-13.457032 9.140625-22.066407 9.140625h-243.148437c-17.136719 0-31.164063-13.820312-31.195313-30.945312-.074219-39.460938 15.898438-75.1875 41.746094-101.039063 19.769531-19.777344 45.328125-33.761719 73.902344-39.210937 11.449219-2.183594 19.753906-12.15625 19.753906-23.8125v-43.378907h34.730469v43.390625c0 11.605469 8.234375 21.609375 19.652344 23.78125 65.914062 12.53125 115.753906 70.457032 115.753906 140.019532zm0 0" fill="#5a5f64"/><path d="m109.394531 209.867188c0 21.851562-17.714843 39.566406-39.566406 39.566406s-39.566406-17.714844-39.566406-39.566406c0-21.851563 17.714843-39.566407 39.566406-39.566407s39.566406 17.714844 39.566406 39.566407zm0 0" fill="#c48958"/><path d="m307.511719 209.875c0 21.851562-17.714844 39.5625-39.566407 39.5625-21.851562 0-39.566406-17.710938-39.566406-39.5625s17.714844-39.566406 39.566406-39.566406c21.851563 0 39.566407 17.714844 39.566407 39.566406zm0 0" fill="#c48958"/><path d="m273.835938 140.265625v97.796875c0 28.394531-19.734376 54.121094-42.726563 72.734375-15.785156 12.789063-33.117187 22.230469-46.625 26.878906-6.167969 2.121094-11.53125 3.253907-15.597656 3.253907-25.996094-.007813-104.949219-46.0625-104.949219-102.867188v-97.796875c0-57.957031 46.992188-104.945313 104.949219-104.945313 5.304687 0 10.511719.394532 15.597656 1.152344 50.566406 7.527344 89.351563 51.136719 89.351563 103.792969zm0 0" fill="#c48958"/><path d="m273.835938 140.265625v97.796875c0 28.394531-19.734376 54.121094-42.726563 72.734375-15.785156 12.789063-33.117187 22.230469-46.625 26.878906-33.191406-11.4375-89.351563-51.699219-89.351563-99.613281v-97.796875c0-52.65625 38.785157-96.265625 89.351563-103.792969 50.566406 7.527344 89.351563 51.136719 89.351563 103.792969zm0 0" fill="#d6995c"/><path d="m282.363281 112.792969-191.679687.179687-31.207032.03125 42.175782-102.570312c3.421875-8.328125 10.503906-12.289063 17.105468-9.574219l10.128907 4.167969 2.453125 1.007812c25.839844 10.628906 53.332031 10.640625 79.171875.011719l12.664062-5.199219c6.601563-2.714844 13.683594 1.25 17.105469 9.578125zm0 0" fill="#4b5055"/><path d="m282.363281 112.792969-191.691406.210937.011719-.03125 38.203125-107.945312 2.453125 1.007812c25.839844 10.628906 53.332031 10.640625 79.171875.011719l12.664062-5.199219c6.601563-2.714844 13.683594 1.25 17.105469 9.578125zm0 0" fill="#5a5f64"/><g fill="#4b5055"><path d="m320.890625 138.371094h-299.847656c-6.699219 0-12.179688-5.480469-12.179688-12.179688v-12.753906c0-6.699219 5.480469-12.179688 12.179688-12.179688h299.847656c6.699219 0 12.179687 5.480469 12.179687 12.179688v12.753906c0 6.699219-5.480468 12.179688-12.179687 12.179688zm0 0"/><path d="m68.898438 450.734375v61.265625h-15.597657v-61.265625c0-4.316406 3.496094-7.800781 7.800781-7.800781 4.3125 0 7.796876 3.484375 7.796876 7.800781zm0 0"/><path d="m288.632812 450.734375v61.265625h-15.597656v-61.265625c0-4.316406 3.484375-7.800781 7.796875-7.800781 4.304688 0 7.800781 3.484375 7.800781 7.800781zm0 0"/><path d="m206.808594 247.367188c-4.308594 0-7.796875 3.492187-7.796875 7.800781 0 7.417969-6.039063 13.453125-13.457031 13.453125h-50.429688c-4.308594 0-7.800781 3.492187-7.800781 7.800781 0 4.304687 3.492187 7.796875 7.800781 7.796875h50.429688c16.019531 0 29.054687-13.03125 29.054687-29.050781 0-4.308594-3.492187-7.800781-7.800781-7.800781zm0 0"/></g><path d="m273.835938 193.921875v15.617187c-61.699219 4.511719-152.304688-24.25-209.898438-46.730468v-16.8125c33.160156 13.132812 141.03125 53.25 209.292969 47.945312.210937-.019531.40625-.019531.605469-.019531zm0 0" fill="#5a5f64"/><path d="m135.796875 202.136719c0 6.867187-5.566406 12.433593-12.433594 12.433593-6.867187 0-12.433593-5.566406-12.433593-12.433593 0-6.867188 5.566406-12.433594 12.433593-12.433594 6.867188 0 12.433594 5.566406 12.433594 12.433594zm0 0" fill="#4b5055"/><path d="m248.347656 180.800781v10.117188c0 19.257812-12.890625 35.496093-30.515625 40.570312-3.714843 1.074219-7.644531 1.644531-11.699219 1.644531-23.3125 0-42.214843-18.902343-42.214843-42.214843v-10.117188c0-5.792969 4.699219-10.503906 10.5-10.503906h63.429687c5.800782 0 10.5 4.710937 10.5 10.503906zm0 0" fill="#4b5055"/><path d="m248.347656 180.800781v10.117188c0 19.257812-12.890625 35.496093-30.515625 40.570312-17.625-5.074219-30.519531-21.3125-30.519531-40.570312v-10.117188c0-5.792969 4.699219-10.503906 10.503906-10.503906h40.03125c5.800782 0 10.5 4.710937 10.5 10.503906zm0 0" fill="#5a5f64"/></svg>