<svg width="512" height="512" viewBox="0 0 512 512" fill="none" xmlns="http://www.w3.org/2000/svg">
<g clip-path="url(#clip0)">
<path d="M486.977 257.011C486.877 257.111 487.301 257.011 485.707 257.011C468.896 257.011 457.276 272.6 463.135 287.126C460.314 290.1 472.489 277.93 266.585 482.756C260.721 488.58 251.289 488.591 245.414 482.756C39.5732 277.982 51.7144 290.13 48.8649 287.126C54.956 272.024 42.2225 256.204 25.0428 257.042C25.0328 257.031 25.0328 257.021 25.0228 257.012C7.98309 230.387 -0.570268 201.503 0.0300383 171.858C2.35622 55.5033 144.342 -30.2894 256.001 67.3743C367.596 -30.2354 509.644 55.4423 511.971 171.858C512.571 201.503 504.017 230.387 486.977 257.011V257.011Z" fill="#FF405C"/>
<path d="M486.977 257.011C486.877 257.111 487.301 257.011 485.707 257.011C468.896 257.011 457.276 272.6 463.135 287.126C460.314 290.1 472.489 277.93 266.585 482.756C263.653 485.668 259.831 487.128 256 487.128V67.3743C325.509 6.57734 412.235 14.3423 467.477 69.5654C516.599 118.687 527.921 193.035 486.977 257.011V257.011Z" fill="#E81717"/>
<path d="M486.977 257.011C480.344 267.386 472.42 277.421 463.235 287.026H352.05C346.527 287.026 341.454 283.995 338.833 279.132L296.881 201.213L237.551 326.466C232.528 337.071 217.678 338.107 211.328 328.097L168.336 260.543L156.81 279.742C154.099 284.265 149.216 287.025 143.943 287.025H48.7649C39.5802 277.42 31.6562 267.385 25.0228 257.01H135.449L155.089 224.273C160.768 214.786 174.578 214.447 180.612 223.943L222.053 289.056L282.454 161.541C287.742 150.423 303.401 150.044 309.238 160.851L361.014 257.01H486.977V257.011Z" fill="#FF405C"/>
<path d="M309.238 160.852C303.412 150.067 287.751 150.405 282.454 161.542L256 217.389V287.518L296.881 201.213L338.833 279.132C341.454 283.994 346.527 287.026 352.049 287.026H463.236C472.421 277.421 480.345 267.386 486.978 257.011H361.014L309.238 160.852Z" fill="#E81717"/>
<path d="M347.128 256.586C347.088 256.626 347.255 256.586 346.626 256.586C339.994 256.586 335.41 262.736 337.721 268.468C336.608 269.641 341.411 264.839 260.176 345.65C257.862 347.947 254.141 347.952 251.823 345.65C170.613 264.86 175.403 269.653 174.279 268.468C176.682 262.509 171.658 256.268 164.88 256.598C164.876 256.594 164.876 256.59 164.872 256.586C158.149 246.082 154.775 234.686 155.012 222.99C155.929 177.085 211.947 143.237 256 181.768C300.028 143.258 356.07 177.061 356.988 222.99C357.225 234.686 353.85 246.082 347.128 256.586V256.586Z" fill="#E81717"/>
<path d="M347.128 256.586C347.088 256.626 347.256 256.586 346.627 256.586C339.994 256.586 335.41 262.736 337.721 268.468C336.608 269.641 341.412 264.839 260.176 345.65C259.02 346.798 257.512 347.375 256 347.375V181.769C283.424 157.782 317.64 160.846 339.435 182.633C358.815 202.013 363.282 231.346 347.128 256.586Z" fill="#FF405C"/>
<path d="M347.128 256.586C344.511 260.679 341.384 264.639 337.761 268.428H293.895C291.716 268.428 289.714 267.232 288.68 265.314L272.129 234.572L248.721 283.988C246.739 288.172 240.881 288.581 238.375 284.632L221.414 257.979L216.866 265.554C215.797 267.339 213.87 268.428 211.79 268.428H174.239C170.616 264.638 167.489 260.679 164.872 256.586H208.439L216.188 243.67C218.428 239.927 223.877 239.793 226.257 243.54L242.607 269.229L266.437 218.92C268.523 214.534 274.701 214.384 277.004 218.648L297.431 256.586L347.128 256.586Z" fill="#E81717"/>
<path d="M277.004 218.648C274.705 214.393 268.527 214.526 266.437 218.921L256 240.954V268.622L272.129 234.572L288.68 265.314C289.714 267.232 291.716 268.428 293.895 268.428H337.761C341.385 264.639 344.511 260.679 347.128 256.586H297.431L277.004 218.648Z" fill="#FF405C"/>
</g>
<defs>
<clipPath id="clip0">
<rect width="512" height="512" fill="white"/>
</clipPath>
</defs>
</svg>
