<svg height="512pt" viewBox="0 0 512.001 512" width="512pt" xmlns="http://www.w3.org/2000/svg"><path d="m80.867188 60.265625h350.265624v391.46875h-350.265624zm0 0" fill="#e8d3a9"/><path d="m400.226562 60.265625h30.902344v391.46875h-30.902344zm0 0" fill="#d9bf8b"/><path d="m0 41.207031c0-8.535156 6.917969-15.453125 15.453125-15.453125h481.09375c8.535156 0 15.453125 6.917969 15.453125 15.453125 0 8.535157-6.917969 15.453125-15.453125 15.453125h-481.09375c-8.535156 0-15.453125-6.917968-15.453125-15.453125zm0 0" fill="#b0693c"/><path d="m452.886719 82.414062h-393.773438c-2.207031 0-4-1.789062-4-4v-74.414062c0-2.207031 1.792969-4 4-4h393.773438c2.207031 0 4 1.792969 4 4v74.414062c0 2.210938-1.792969 4-4 4zm0 0" fill="#fff3d9"/><path d="m425.980469 0v82.414062h26.90625c2.207031 0 4-1.789062 4-4v-74.414062c0-2.207031-1.792969-4-4-4zm0 0" fill="#e8d3a9"/><path d="m0 470.792969c0-8.535157 6.917969-15.453125 15.453125-15.453125h481.09375c8.535156 0 15.453125 6.917968 15.453125 15.453125 0 8.535156-6.917969 15.453125-15.453125 15.453125h-481.09375c-8.535156 0-15.453125-6.917969-15.453125-15.453125zm0 0" fill="#b0693c"/><path d="m452.886719 512h-393.773438c-2.207031 0-4-1.789062-4-4v-74.414062c0-2.207032 1.792969-4 4-4h393.773438c2.207031 0 4 1.792968 4 4v74.414062c0 2.210938-1.792969 4-4 4zm0 0" fill="#fff3d9"/><path d="m425.980469 429.585938v82.414062h26.90625c2.207031 0 4-1.789062 4-4v-74.414062c0-2.207032-1.792969-4-4-4zm0 0" fill="#e8d3a9"/><g fill="#ffc107"><path d="m31.421875 7.953125c-4.144531 0-7.5 3.359375-7.5 7.5v51.507813c0 4.144531 3.355469 7.5 7.5 7.5 4.140625 0 7.5-3.355469 7.5-7.5v-51.507813c0-4.140625-3.359375-7.5-7.5-7.5zm0 0"/><path d="m480.578125 7.953125c-4.140625 0-7.5 3.359375-7.5 7.5v51.507813c0 4.144531 3.359375 7.5 7.5 7.5 4.144531 0 7.5-3.355469 7.5-7.5v-51.507813c0-4.140625-3.355469-7.5-7.5-7.5zm0 0"/><path d="m31.421875 437.539062c-4.144531 0-7.5 3.359376-7.5 7.5v51.507813c0 4.144531 3.355469 7.5 7.5 7.5 4.140625 0 7.5-3.355469 7.5-7.5v-51.507813c0-4.140624-3.359375-7.5-7.5-7.5zm0 0"/><path d="m480.578125 437.539062c-4.140625 0-7.5 3.359376-7.5 7.5v51.507813c0 4.144531 3.359375 7.5 7.5 7.5 4.144531 0 7.5-3.355469 7.5-7.5v-51.507813c0-4.140624-3.355469-7.5-7.5-7.5zm0 0"/></g></svg>